<?xml version="1.0" standalone="no"?>
<!DOCTYPE svg PUBLIC "-//W3C//DTD SVG 20010904//EN"
 "http://www.w3.org/TR/2001/REC-SVG-20010904/DTD/svg10.dtd">
<svg version="1.0" xmlns="http://www.w3.org/2000/svg"
 width="1920.000000pt" height="1920.000000pt" viewBox="0 0 1920.000000 1920.000000"
 preserveAspectRatio="xMidYMid meet">
<metadata>
Created by potrace 1.14, written by Peter Selinger 2001-2017
</metadata>
<g transform="translate(0.000000,1920.000000) scale(0.100000,-0.100000)"
fill="#000000" stroke="none">
<path d="M4127 12202 l-3328 -3328 206 -204 c113 -113 207 -206 208 -207 2 -1
19 2 38 7 19 5 59 12 89 16 30 4 64 8 76 9 11 2 45 8 75 14 30 6 70 13 89 15
19 3 76 11 125 20 50 9 108 18 130 21 22 3 51 8 65 11 47 9 75 13 115 19 77
11 100 15 125 20 14 3 43 8 65 10 22 3 47 7 55 10 8 2 35 7 60 10 25 3 70 10
100 15 30 5 71 12 91 15 l36 6 2 -58 c4 -92 18 -259 26 -325 5 -40 11 -88 20
-160 21 -171 61 -392 95 -529 11 -46 22 -93 24 -104 2 -11 14 -56 27 -100 132
-465 346 -923 588 -1255 129 -177 359 -425 540 -580 35 -30 73 -63 85 -74 75
-66 274 -214 411 -304 388 -254 898 -477 1305 -568 48 -11 50 -11 53 -14 2 -2
0 -1 144 -29 155 -30 261 -46 364 -55 24 -2 78 -7 119 -11 144 -13 529 -7 634
10 11 2 64 9 116 15 92 12 107 14 160 25 34 6 78 14 120 21 19 3 62 12 95 21
33 8 68 17 78 19 19 4 22 5 127 34 409 111 824 302 1205 554 133 88 389 277
406 299 3 4 19 17 36 30 130 96 193 158 2227 2191 l1849 1848 -845 845 -846
845 -1854 -1853 c-1020 -1020 -1885 -1883 -1923 -1918 -37 -35 -109 -96 -159
-135 -90 -70 -295 -206 -311 -206 -5 0 -16 -6 -24 -13 -52 -43 -353 -153 -476
-173 -16 -3 -37 -7 -45 -10 -54 -20 -213 -32 -375 -29 -99 2 -191 6 -205 9
-14 2 -41 7 -60 11 -343 62 -666 239 -945 520 -191 190 -300 379 -393 675 -14
45 -50 221 -57 285 -24 192 -6 514 39 710 81 350 248 678 471 924 28 31 878
885 1890 1897 1013 1013 1846 1848 1853 1856 9 11 -150 175 -836 861 l-847
847 -3328 -3328z"/>
<path d="M12498 14694 c-2 -1 -57 -4 -123 -8 -121 -5 -338 -29 -385 -41 -8 -2
-33 -6 -55 -9 -156 -22 -572 -132 -695 -183 -8 -3 -17 -7 -20 -7 -21 -5 -175
-67 -267 -107 -270 -118 -552 -282 -808 -468 -87 -63 -326 -253 -372 -296 -13
-11 -63 -56 -111 -100 -49 -44 -939 -930 -1978 -1968 l-1888 -1888 845 -845
845 -845 1890 1888 c1040 1038 1917 1911 1950 1939 32 28 88 73 124 100 36 27
67 52 68 57 2 4 8 7 13 7 5 0 31 15 57 33 61 43 175 108 254 146 63 30 277
106 327 117 78 16 233 43 281 48 59 7 292 9 325 2 11 -2 47 -7 80 -10 145 -17
364 -86 520 -167 376 -192 682 -512 819 -854 29 -74 49 -130 61 -180 5 -16 9
-34 11 -40 12 -41 30 -136 39 -195 3 -25 8 -63 12 -85 7 -49 12 -367 5 -379
-3 -5 -6 -31 -8 -59 -2 -28 -9 -78 -15 -111 -6 -34 -13 -72 -15 -86 -13 -69
-69 -263 -101 -344 -42 -109 -162 -346 -174 -346 -5 0 -9 -5 -9 -11 0 -11 -71
-118 -93 -140 -7 -8 -18 -21 -23 -31 -24 -42 -251 -272 -1983 -2005 l-1854
-1854 849 -849 849 -849 3328 3328 3327 3327 -205 205 c-113 112 -206 205
-208 206 -1 1 -22 -2 -47 -7 -25 -4 -63 -11 -85 -14 -22 -4 -123 -20 -224 -37
-101 -17 -200 -32 -220 -35 -20 -2 -43 -6 -51 -9 -8 -2 -35 -7 -60 -10 -25 -4
-94 -15 -155 -25 -60 -10 -128 -21 -150 -24 -23 -4 -52 -8 -65 -11 -13 -3 -42
-7 -65 -10 -22 -3 -62 -10 -90 -15 -27 -5 -67 -12 -87 -14 l-38 -4 -1 46 c-1
56 -4 112 -13 207 -4 39 -9 93 -11 120 -3 28 -7 68 -10 90 -3 22 -8 58 -11 80
-6 42 -42 272 -49 315 -6 31 -11 58 -19 90 -3 14 -8 36 -10 50 -23 139 -135
510 -210 696 -157 393 -349 728 -562 984 -80 97 -277 299 -384 395 -350 314
-719 555 -1150 748 -75 33 -319 128 -340 132 -3 0 -34 10 -70 22 -97 31 -205
63 -230 68 -12 2 -29 6 -38 9 -9 3 -28 8 -42 10 -14 3 -45 10 -70 16 -38 10
-117 25 -220 44 -22 4 -65 10 -155 21 -42 6 -127 14 -210 20 -74 6 -343 13
-347 9z"/>
</g>
</svg>
